<svg xmlns="http://www.w3.org/2000/svg" xmlns:xlink="http://www.w3.org/1999/xlink" style="background-color:#fff" viewBox="0 0 296 148">
  <defs>
    <path id="a" fill-rule="evenodd" stroke="#000" stroke-linejoin="round" stroke-width=".7" d="M-11-4 1 0l-12 4c2-2 2-6 0-8z"/>
    <path id="b" fill-rule="evenodd" stroke="#000" stroke-linejoin="round" stroke-width=".7" d="M11 4-1 0l12-4c-2 2-2 6 0 8z"/>
  </defs>
  <defs>
    <marker id="d" orient="auto" overflow="visible" refX="0" refY="0">
      <use xlink:href="#a" fill-rule="evenodd" stroke-linejoin="round" stroke-width=".7"/>
    </marker>
    <marker id="c" orient="auto" overflow="visible" refX="0" refY="0">
      <use xlink:href="#b" fill-rule="evenodd" stroke-linejoin="round" stroke-width=".7"/>
    </marker>
    <marker id="f" orient="auto" overflow="visible" refX="0" refY="0">
      <use xlink:href="#a" fill-rule="evenodd" stroke-linejoin="round" stroke-width=".7"/>
    </marker>
    <marker id="e" orient="auto" overflow="visible" refX="0" refY="0">
      <use xlink:href="#b" fill-rule="evenodd" stroke-linejoin="round" stroke-width=".7"/>
    </marker>
    <marker id="h" orient="auto" overflow="visible" refX="0" refY="0">
      <use xlink:href="#a" fill-rule="evenodd" stroke-linejoin="round" stroke-width=".7"/>
    </marker>
    <marker id="g" orient="auto" overflow="visible" refX="0" refY="0">
      <use xlink:href="#b" fill-rule="evenodd" stroke-linejoin="round" stroke-width=".7"/>
    </marker>
    <marker id="j" orient="auto" overflow="visible" refX="0" refY="0">
      <use xlink:href="#a" fill-rule="evenodd" stroke-linejoin="round" stroke-width=".7"/>
    </marker>
    <marker id="i" orient="auto" overflow="visible" refX="0" refY="0">
      <use xlink:href="#b" fill-rule="evenodd" stroke-linejoin="round" stroke-width=".7"/>
    </marker>
    <marker id="l" orient="auto" overflow="visible" refX="0" refY="0">
      <use xlink:href="#a" fill-rule="evenodd" stroke-linejoin="round" stroke-width=".7"/>
    </marker>
    <marker id="k" orient="auto" overflow="visible" refX="0" refY="0">
      <use xlink:href="#b" fill-rule="evenodd" stroke-linejoin="round" stroke-width=".7"/>
    </marker>
    <marker id="m" orient="auto" overflow="visible" refX="0" refY="0">
      <use xlink:href="#b" fill-rule="evenodd" stroke-linejoin="round" stroke-width=".7"/>
    </marker>
    <marker id="n" orient="auto" overflow="visible" refX="0" refY="0">
      <use xlink:href="#b" fill-rule="evenodd" stroke-linejoin="round" stroke-width=".7"/>
    </marker>
    <marker id="o" orient="auto" overflow="visible" refX="0" refY="0">
      <use xlink:href="#b" fill-rule="evenodd" stroke-linejoin="round" stroke-width=".7"/>
    </marker>
  </defs>
  <text xml:space="preserve" x="19" y="186" stroke-width=".2" font-family="sans-serif" font-size="4.2" font-weight="700" letter-spacing="0" style="line-height:1.25;-inkscape-font-specification:&quot;sans-serif, Bold&quot;;font-variant-ligatures:normal;font-variant-caps:normal;font-variant-numeric:normal;font-feature-settings:normal;text-align:start" transform="translate(0 -149)" word-spacing="0"><tspan x="19" y="186" style="-inkscape-font-specification:&quot;sans-serif, Bold&quot;;font-variant-ligatures:normal;font-variant-caps:normal;font-variant-numeric:normal;font-feature-settings:normal;text-align:start">Computer</tspan></text>
  <path fill="none" stroke="#000" stroke-width=".3" marker-start="url(#c)" d="m206 162-65 29" transform="translate(0 -149)"/>
  <path fill="none" stroke="#000" stroke-width=".3" marker-end="url(#d)" d="m207 168-67 28" transform="translate(0 -149)"/>
  <path fill="currentColor" d="M41 60h-8l-1 1h-2l-1-1h-7l-1 1 2 2h16l2-2v-1zm-2-11-1-2H25l-2 2v10h16zm-2 8H25v-8h12zm99-5h-16l-1-1v-2l1-1h16l1 1v2l-1 1zm-2-3a1 1 0 1 0 0 2 1 1 0 0 0 0-2zm-2 0a1 1 0 1 0 0 2 1 1 0 0 0 0-2zm4 9h-16l-1-1v-3l1-1h16l1 1v3l-1 1zm-2-3a1 1 0 1 0 0 1 1 1 0 0 0 0-1zm-2 0a1 1 0 1 0 0 1 1 1 0 0 0 0-1zm4 8h-16l-1-1v-2l1-1h16l1 1v2l-1 1zm-2-3a1 1 0 1 0 0 2 1 1 0 0 0 0-2zm-2 0a1 1 0 1 0 0 2 1 1 0 0 0 0-2zm96-47h-16l-1-1V9l1-1h16l1 1v3l-1 1zm-1-3a1 1 0 1 0 0 1 1 1 0 0 0 0-1zm-3 0a1 1 0 1 0 0 1 1 1 0 0 0 0-1zm4 8h-16l-1-1v-2l1-1h16l1 1v2l-1 1zm-1-3a1 1 0 1 0 0 2 1 1 0 0 0 0-2zm-3 0a1 1 0 1 0 0 2 1 1 0 0 0 0-2zm4 9h-16l-1-1v-2l1-2h16l1 2v2l-1 1zm-1-3a1 1 0 1 0 0 2 1 1 0 0 0 0-2zm-3 0a1 1 0 1 0 0 2 1 1 0 0 0 0-2zm4 31h-16l-1-1v-2l1-1h16l1 1v2l-1 1zm-1-3a1 1 0 1 0 0 2 1 1 0 0 0 0-2zm-3 0a1 1 0 1 0 0 2 1 1 0 0 0 0-2zm4 9h-16l-1-1v-3l1-1h16l1 1v3l-1 1zm-1-3a1 1 0 1 0 0 1 1 1 0 0 0 0-1zm-3 0a1 1 0 1 0 0 1 1 1 0 0 0 0-1zm4 8h-16l-1-1v-2l1-1h16l1 1v2l-1 1zm-1-3a1 1 0 1 0 0 2 1 1 0 0 0 0-2zm-3 0a1 1 0 1 0 0 2 1 1 0 0 0 0-2zm4 29h-16l-1-2v-2l1-1h16l1 1v2l-1 2zm-1-4a1 1 0 1 0 0 2 1 1 0 0 0 0-2zm-3 0a1 1 0 1 0 0 2 1 1 0 0 0 0-2zm4 9h-16l-1-1v-2l1-1h16l1 1v2l-1 1zm-1-3a1 1 0 1 0 0 2 1 1 0 0 0 0-2zm-3 0a1 1 0 1 0 0 2 1 1 0 0 0 0-2zm4 9h-16l-1-1v-3l1-1h16l1 1v3l-1 1zm-1-3a1 1 0 1 0 0 1 1 1 0 0 0 0-1zm-3 0a1 1 0 1 0 0 1 1 1 0 0 0 0-1z"/>
  <path fill="none" stroke="#000" stroke-width=".3" marker-start="url(#e)" d="M206 202h-65" transform="translate(0 -149)"/>
  <path fill="none" stroke="#000" stroke-width=".3" marker-end="url(#f)" d="M206 207h-65" transform="translate(0 -149)"/>
  <path fill="none" stroke="#000" stroke-width=".3" marker-start="url(#g)" d="m206 239-66-26" transform="translate(0 -149)"/>
  <path fill="none" stroke="#000" stroke-width=".3" marker-end="url(#h)" d="m206 244-66-26" transform="translate(0 -149)"/>
  <path fill="none" stroke="#000" stroke-width=".3" marker-start="url(#i)" d="M113 202H46" transform="translate(0 -149)"/>
  <path fill="none" stroke="#000" stroke-width=".3" marker-end="url(#j)" d="M114 207H46" transform="translate(0 -149)"/>
  <path fill="none" stroke="#000" stroke-width=".3" marker-start="url(#k)" d="M29 260v-42" transform="translate(0 -149)"/>
  <path fill="none" stroke="#000" stroke-width=".3" marker-end="url(#l)" d="M34 261v-42" transform="translate(0 -149)"/>
  <path fill="currentColor" d="M39 120H24l-2-1v-2l2-1h15l1 1v2l-1 1zm-1-3a1 1 0 1 0 0 2 1 1 0 0 0 0-2zm-3 0a1 1 0 1 0 0 2 1 1 0 0 0 0-2zm4 9H24l-2-1v-2l2-1h15l1 1v2l-1 1zm-1-3a1 1 0 1 0 0 2 1 1 0 0 0 0-2zm-3 0a1 1 0 1 0 0 2 1 1 0 0 0 0-2zm4 9H24l-2-1v-3l2-1h15l1 1v3l-1 1zm-1-3a1 1 0 1 0 0 1 1 1 0 0 0 0-1zm-3 0a1 1 0 1 0 0 1 1 1 0 0 0 0-1z"/>
  <text xml:space="preserve" x="59" y="198" stroke-width=".2" font-family="sans-serif" font-size="3.9" font-weight="400" letter-spacing="0" style="line-height:1.25;-inkscape-font-specification:&quot;sans-serif, Normal&quot;;font-variant-ligatures:normal;font-variant-caps:normal;font-variant-numeric:normal;font-feature-settings:normal;text-align:start" transform="translate(0 -149)" word-spacing="0"><tspan x="59" y="198" style="-inkscape-font-specification:&quot;sans-serif, Normal&quot;;font-variant-ligatures:normal;font-variant-caps:normal;font-variant-numeric:normal;font-feature-settings:normal;text-align:start">www.example.com </tspan></text>
  <text xml:space="preserve" x="52" y="213" stroke-width=".2" font-family="sans-serif" font-size="3.9" font-weight="400" letter-spacing="0" style="line-height:1.25;-inkscape-font-specification:&quot;sans-serif, Normal&quot;;font-variant-ligatures:normal;font-variant-caps:normal;font-variant-numeric:normal;font-feature-settings:normal;text-align:start" transform="translate(0 -149)" word-spacing="0"><tspan x="52" y="213" style="-inkscape-font-specification:&quot;sans-serif, Normal&quot;;font-variant-ligatures:normal;font-variant-caps:normal;font-variant-numeric:normal;font-feature-settings:normal;text-align:start">www.example.com = 3.3.3.3</tspan></text>
  <text xml:space="preserve" x="157" y="171" stroke-width=".2" font-family="sans-serif" font-size="3.9" font-weight="400" letter-spacing="0" style="line-height:1.25;-inkscape-font-specification:&quot;sans-serif, Normal&quot;;font-variant-ligatures:normal;font-variant-caps:normal;font-variant-numeric:normal;font-feature-settings:normal;text-align:start" transform="rotate(-23 -182 108)" word-spacing="0"><tspan x="157" y="171" style="-inkscape-font-specification:&quot;sans-serif, Normal&quot;;font-variant-ligatures:normal;font-variant-caps:normal;font-variant-numeric:normal;font-feature-settings:normal;text-align:start">www.example.com </tspan></text>
  <text xml:space="preserve" x="160" y="171" stroke-width=".2" font-family="sans-serif" font-size="3.9" font-weight="400" letter-spacing="0" style="line-height:1.25;-inkscape-font-specification:&quot;sans-serif, Normal&quot;;font-variant-ligatures:normal;font-variant-caps:normal;font-variant-numeric:normal;font-feature-settings:normal;text-align:start" transform="rotate(-23 -155 96)" word-spacing="0"><tspan x="160" y="171" style="-inkscape-font-specification:&quot;sans-serif, Normal&quot;;font-variant-ligatures:normal;font-variant-caps:normal;font-variant-numeric:normal;font-feature-settings:normal;text-align:start">com = 1.1.1.1</tspan></text>
  <text xml:space="preserve" x="158" y="201" stroke-width=".2" font-family="sans-serif" font-size="3.9" font-weight="400" letter-spacing="0" style="line-height:1.25;-inkscape-font-specification:&quot;sans-serif, Normal&quot;;font-variant-ligatures:normal;font-variant-caps:normal;font-variant-numeric:normal;font-feature-settings:normal;text-align:start" transform="translate(0 -149)" word-spacing="0"><tspan x="158" y="201" style="-inkscape-font-specification:&quot;sans-serif, Normal&quot;;font-variant-ligatures:normal;font-variant-caps:normal;font-variant-numeric:normal;font-feature-settings:normal;text-align:start">www.example.com </tspan></text>
  <text xml:space="preserve" x="155" y="211" stroke-width=".2" font-family="sans-serif" font-size="3.9" font-weight="400" letter-spacing="0" style="line-height:1.25;-inkscape-font-specification:&quot;sans-serif, Normal&quot;;font-variant-ligatures:normal;font-variant-caps:normal;font-variant-numeric:normal;font-feature-settings:normal;text-align:start" transform="translate(0 -149)" word-spacing="0"><tspan x="155" y="211" style="-inkscape-font-specification:&quot;sans-serif, Normal&quot;;font-variant-ligatures:normal;font-variant-caps:normal;font-variant-numeric:normal;font-feature-settings:normal;text-align:start">example.com = 2.2.2.2 </tspan></text>
  <text xml:space="preserve" x="229" y="142" stroke-width=".2" font-family="sans-serif" font-size="3.9" font-weight="400" letter-spacing="0" style="line-height:1.25;-inkscape-font-specification:&quot;sans-serif, Normal&quot;;font-variant-ligatures:normal;font-variant-caps:normal;font-variant-numeric:normal;font-feature-settings:normal;text-align:start" transform="rotate(22 383 -74)" word-spacing="0"><tspan x="229" y="142" style="-inkscape-font-specification:&quot;sans-serif, Normal&quot;;font-variant-ligatures:normal;font-variant-caps:normal;font-variant-numeric:normal;font-feature-settings:normal;text-align:start">www.example.com </tspan></text>
  <text xml:space="preserve" x="220" y="154" stroke-width=".2" font-family="sans-serif" font-size="3.9" font-weight="400" letter-spacing="0" style="line-height:1.25;-inkscape-font-specification:&quot;sans-serif, Normal&quot;;font-variant-ligatures:normal;font-variant-caps:normal;font-variant-numeric:normal;font-feature-settings:normal;text-align:start" transform="rotate(22 383 -74)" word-spacing="0"><tspan x="220" y="154" style="-inkscape-font-specification:&quot;sans-serif, Normal&quot;;font-variant-ligatures:normal;font-variant-caps:normal;font-variant-numeric:normal;font-feature-settings:normal;text-align:start">www.example.com = 3.3.3.3</tspan></text>
  <text xml:space="preserve" x="129" y="180" stroke-width=".2" font-family="sans-serif" font-size="4.2" font-weight="700" letter-spacing="0" style="line-height:1.25;-inkscape-font-specification:&quot;sans-serif, Bold&quot;;font-variant-ligatures:normal;font-variant-caps:normal;font-variant-numeric:normal;font-feature-settings:normal;text-align:start" transform="translate(0 -149)" word-spacing="0"><tspan x="129" y="180" style="-inkscape-font-specification:&quot;sans-serif, Bold&quot;;font-variant-ligatures:normal;font-variant-caps:normal;font-variant-numeric:normal;font-feature-settings:normal;text-align:center" text-anchor="middle">DNS</tspan><tspan x="129" y="185" style="-inkscape-font-specification:&quot;sans-serif, Bold&quot;;font-variant-ligatures:normal;font-variant-caps:normal;font-variant-numeric:normal;font-feature-settings:normal;text-align:center" text-anchor="middle">Resolver</tspan></text>
  <text xml:space="preserve" x="234" y="166" stroke-width=".2" font-family="sans-serif" font-size="4.2" font-weight="700" letter-spacing="0" style="line-height:1.25;-inkscape-font-specification:&quot;sans-serif, Bold&quot;;font-variant-ligatures:normal;font-variant-caps:normal;font-variant-numeric:normal;font-feature-settings:normal;text-align:start" transform="translate(0 -149)" word-spacing="0"><tspan x="234" y="166" style="-inkscape-font-specification:&quot;sans-serif, Bold&quot;;font-variant-ligatures:normal;font-variant-caps:normal;font-variant-numeric:normal;font-feature-settings:normal;text-align:start">Root Server</tspan></text>
  <text xml:space="preserve" x="235" y="242" stroke-width=".2" font-family="sans-serif" font-size="4.2" font-weight="700" letter-spacing="0" style="line-height:1.25;-inkscape-font-specification:&quot;sans-serif, Bold&quot;;font-variant-ligatures:normal;font-variant-caps:normal;font-variant-numeric:normal;font-feature-settings:normal;text-align:start" transform="translate(0 -149)" word-spacing="0"><tspan x="235" y="242" style="-inkscape-font-specification:&quot;sans-serif, Bold&quot;;font-variant-ligatures:normal;font-variant-caps:normal;font-variant-numeric:normal;font-feature-settings:normal;text-align:start">Name Server</tspan></text>
  <text xml:space="preserve" x="234" y="204" stroke-width=".2" font-family="sans-serif" font-size="4.2" font-weight="700" letter-spacing="0" style="line-height:1.25;-inkscape-font-specification:&quot;sans-serif, Bold&quot;;font-variant-ligatures:normal;font-variant-caps:normal;font-variant-numeric:normal;font-feature-settings:normal;text-align:start" transform="translate(0 -149)" word-spacing="0"><tspan x="234" y="204" style="-inkscape-font-specification:&quot;sans-serif, Bold&quot;;font-variant-ligatures:normal;font-variant-caps:normal;font-variant-numeric:normal;font-feature-settings:normal;text-align:start">Top Level Domain (TLD) </tspan><tspan x="234" y="209" style="-inkscape-font-specification:&quot;sans-serif, Bold&quot;;font-variant-ligatures:normal;font-variant-caps:normal;font-variant-numeric:normal;font-feature-settings:normal;text-align:start">Server</tspan></text>
  <text xml:space="preserve" x="11" y="243" stroke-width=".2" font-family="sans-serif" font-size="3.9" font-weight="400" letter-spacing="0" style="line-height:1.25;-inkscape-font-specification:&quot;sans-serif, Normal&quot;;font-variant-ligatures:normal;font-variant-caps:normal;font-variant-numeric:normal;font-feature-settings:normal;text-align:start" transform="translate(0 -149)" word-spacing="0"><tspan x="11" y="243" style="-inkscape-font-specification:&quot;sans-serif, Normal&quot;;font-variant-ligatures:normal;font-variant-caps:normal;font-variant-numeric:normal;font-feature-settings:normal;text-align:start">Request </tspan></text>
  <text xml:space="preserve" x="37" y="243" stroke-width=".2" font-family="sans-serif" font-size="3.9" font-weight="400" letter-spacing="0" style="line-height:1.25;-inkscape-font-specification:&quot;sans-serif, Normal&quot;;font-variant-ligatures:normal;font-variant-caps:normal;font-variant-numeric:normal;font-feature-settings:normal;text-align:start" transform="translate(0 -149)" word-spacing="0"><tspan x="37" y="243" style="-inkscape-font-specification:&quot;sans-serif, Normal&quot;;font-variant-ligatures:normal;font-variant-caps:normal;font-variant-numeric:normal;font-feature-settings:normal;text-align:start">Response</tspan></text>
  <text xml:space="preserve" x="48" y="271" stroke-width=".2" font-family="sans-serif" font-size="4.2" font-weight="700" letter-spacing="0" style="line-height:1.25;-inkscape-font-specification:&quot;sans-serif, Bold&quot;;font-variant-ligatures:normal;font-variant-caps:normal;font-variant-numeric:normal;font-feature-settings:normal;text-align:start" transform="translate(0 -149)" word-spacing="0"><tspan x="48" y="271" style="-inkscape-font-specification:&quot;sans-serif, Bold&quot;;font-variant-ligatures:normal;font-variant-caps:normal;font-variant-numeric:normal;font-feature-settings:normal;text-align:start">HTTP Server</tspan><tspan x="48" y="277" font-weight="400" style="-inkscape-font-specification:&quot;sans-serif, Normal&quot;;font-variant-ligatures:normal;font-variant-caps:normal;font-variant-numeric:normal;font-feature-settings:normal;text-align:start">3.3.3.3</tspan></text>
  <text xml:space="preserve" x="118" y="288" stroke-width=".2" font-family="sans-serif" font-size="3.9" font-weight="400" letter-spacing="0" style="line-height:1.25;-inkscape-font-specification:&quot;sans-serif, Normal&quot;;font-variant-ligatures:normal;font-variant-caps:normal;font-variant-numeric:normal;font-feature-settings:normal;text-align:start" transform="translate(0 -149)" word-spacing="0"><tspan x="118" y="288" font-weight="700" style="-inkscape-font-specification:&quot;sans-serif, Normal&quot;;font-variant-ligatures:normal;font-variant-caps:normal;font-variant-numeric:normal;font-feature-settings:normal;text-align:start">www.example.com </tspan></text>
  <text xml:space="preserve" x="140" y="263" stroke-width=".2" font-family="sans-serif" font-size="3.9" font-weight="400" letter-spacing="0" style="line-height:1.25;-inkscape-font-specification:&quot;sans-serif, Normal&quot;;font-variant-ligatures:normal;font-variant-caps:normal;font-variant-numeric:normal;font-feature-settings:normal;text-align:center" text-anchor="middle" transform="translate(0 -149)" word-spacing="0"><tspan x="140" y="263" style="-inkscape-font-specification:&quot;sans-serif, Normal&quot;;font-variant-ligatures:normal;font-variant-caps:normal;font-variant-numeric:normal;font-feature-settings:normal;text-align:center">second level </tspan><tspan x="140" y="268" style="-inkscape-font-specification:&quot;sans-serif, Normal&quot;;font-variant-ligatures:normal;font-variant-caps:normal;font-variant-numeric:normal;font-feature-settings:normal;text-align:center">domain</tspan></text>
  <text xml:space="preserve" x="170" y="272" stroke-width=".2" font-family="sans-serif" font-size="3.9" font-weight="400" letter-spacing="0" style="line-height:1.25;-inkscape-font-specification:&quot;sans-serif, Normal&quot;;font-variant-ligatures:normal;font-variant-caps:normal;font-variant-numeric:normal;font-feature-settings:normal;text-align:center" text-anchor="middle" transform="translate(0 -149)" word-spacing="0"><tspan x="170" y="272" style="-inkscape-font-specification:&quot;sans-serif, Normal&quot;;font-variant-ligatures:normal;font-variant-caps:normal;font-variant-numeric:normal;font-feature-settings:normal;text-align:center">top-level</tspan><tspan x="170" y="277" style="-inkscape-font-specification:&quot;sans-serif, Normal&quot;;font-variant-ligatures:normal;font-variant-caps:normal;font-variant-numeric:normal;font-feature-settings:normal;text-align:center">domain</tspan></text>
  <text xml:space="preserve" x="104" y="274" stroke-width=".2" font-family="sans-serif" font-size="3.9" font-weight="400" letter-spacing="0" style="line-height:1.25;-inkscape-font-specification:&quot;sans-serif, Normal&quot;;font-variant-ligatures:normal;font-variant-caps:normal;font-variant-numeric:normal;font-feature-settings:normal;text-align:start" transform="translate(0 -149)" word-spacing="0"><tspan x="104" y="274" style="-inkscape-font-specification:&quot;sans-serif, Normal&quot;;font-variant-ligatures:normal;font-variant-caps:normal;font-variant-numeric:normal;font-feature-settings:normal;text-align:start">subdomain</tspan></text>
  <path fill="none" stroke="#000" stroke-width=".3" marker-start="url(#m)" d="M139 283v-12" transform="translate(0 -149)"/>
  <path fill="none" stroke="#000" stroke-width=".3" marker-start="url(#n)" d="m123 284-6-7" transform="translate(0 -149)"/>
  <path fill="none" stroke="#000" stroke-width=".3" marker-start="url(#o)" d="m154 284 8-7" transform="translate(0 -149)"/>
</svg>
