<svg xmlns="http://www.w3.org/2000/svg" xmlns:xlink="http://www.w3.org/1999/xlink" xml:space="preserve" fill-rule="evenodd" stroke-linecap="round" stroke-linejoin="round" stroke-miterlimit="1.5" clip-rule="evenodd" style="background-color:#fff" viewBox="0 0 800 600">
  <text x="87" y="165" font-family="&quot;FontAwesome5Free-Regular&quot;,&quot;Font Awesome 5 Free&quot;" font-size="12" transform="matrix(6.2 0 0 6.2 -514 -879)"></text>
  <path fill="none" stroke="#000" stroke-width="5.5" d="M640 95c0-8-4-15-9-15H449c-5 0-9 7-9 15v450c0 8 4 15 9 15h182c5 0 9-7 9-15V95Z" transform="matrix(1.1 0 0 .7 -294 -15)"/>
  <path fill="none" stroke="#000" stroke-width="5.7" d="M640 97c0-9-4-17-9-17H449c-5 0-9 8-9 17v446c0 9 4 17 9 17h182c5 0 9-8 9-17V97Z" transform="matrix(1.1 0 0 .6 66 -4)"/>
  <path fill="none" stroke="#000" stroke-width="6" d="M640 102c0-12-4-22-8-22H448c-4 0-8 10-8 22v436c0 12 4 22 8 22h184c4 0 8-10 8-22V102Z" transform="matrix(1.1 0 0 .4 66 327)"/>
  <text x="32" y="197" font-family="&quot;Arial-BoldMT&quot;,&quot;Arial&quot;,sans-serif" font-size="30" font-weight="700" transform="matrix(.8 0 0 .8 -2 17)">User</text>
  <g font-size="30">
    <text x="55" y="197" font-family="&quot;Arial-BoldMT&quot;,&quot;Arial&quot;,sans-serif" font-weight="700" transform="matrix(.8 0 0 .8 220 3)">Client</text>
    <text x="37" y="228" font-family="&quot;ArialMT&quot;,&quot;Arial&quot;,sans-serif" transform="matrix(.8 0 0 .8 220 3)">Frontend</text>
  </g>
  <g font-size="30">
    <text x="50" y="197" font-family="&quot;Arial-BoldMT&quot;,&quot;Arial&quot;,sans-serif" font-weight="700" transform="matrix(.8 0 0 .8 579 3)">Server</text>
    <text x="38" y="228" font-family="&quot;ArialMT&quot;,&quot;Arial&quot;,sans-serif" transform="matrix(.8 0 0 .8 579 3)">Backend</text>
  </g>
  <text x="30" y="197" font-family="&quot;Arial-BoldMT&quot;,&quot;Arial&quot;,sans-serif" font-size="30" font-weight="700" transform="matrix(.8 0 0 .8 579 303)">Database</text>
  <use xlink:href="#a" width="122.5" height="15" x="118" y="100" transform="rotate(5 0 0)"/>
  <path d="m135 133-15 7 15 8c-4-4-4-11 0-15Z"/>
  <path fill="none" stroke="#000" stroke-width="5" d="M132 140h108"/>
  <path d="m585 101 15 7-15 8c4-4 4-11 0-15Z"/>
  <path fill="none" stroke="#000" stroke-width="5" d="M360 108h228"/>
  <path d="m607 385-7 15-8-15c4 4 12 4 15 0Z"/>
  <path fill="none" stroke="#000" stroke-width="5" d="M600 290v98"/>
  <path d="m712 305 8-15 7 15c-3-4-11-4-15 0Z"/>
  <path fill="none" stroke="#000" stroke-width="5" d="M720 400v-98"/>
  <path d="m375 134-15 8 15 7c-4-3-4-11 0-15Z"/>
  <path fill="none" stroke="#000" stroke-width="5" d="M372 142h228"/>
  <g font-family="&quot;ArialMT&quot;,&quot;Arial&quot;,sans-serif">
    <text x="48" y="197" font-size="24" transform="matrix(.8 0 0 .8 186 80)">Presentation tier</text>
    <text x="41" y="234" font-size="18" transform="matrix(.8 0 0 .8 186 80)">Chrome, Firefox, Opera</text>
    <text x="28" y="271" font-size="18" transform="matrix(.8 0 0 .8 186 80)">HTML, CSS, JA<tspan x="154 164 176" y="271 271 271">VAS</tspan>CRIPT</text>
  </g>
  <g font-family="&quot;ArialMT&quot;,&quot;Arial&quot;,sans-serif">
    <text x="87" y="197" font-size="24" transform="matrix(.8 0 0 .8 547 75)">Logic tier</text>
    <text x="52" y="240" font-size="18" transform="matrix(.8 0 0 .8 547 75)">Node.js, Python, etc.</text>
  </g>
  <g font-family="&quot;ArialMT&quot;,&quot;Arial&quot;,sans-serif">
    <text x="90" y="197" font-size="24" transform="matrix(.8 0 0 .8 547 343)">Data tier</text>
    <text x="46" y="240" font-size="17.9" transform="matrix(.8 0 0 .8 547 343)">Postgres, MySQL, etc.</text>
  </g>
  <text font-family="&quot;FontAwesome5Free-Solid&quot;,&quot;Font Awesome 5 Free&quot;" font-size="30" font-weight="900" transform="matrix(1.8 0 0 1.5 267 113)"></text>
  <text font-family="&quot;FontAwesome5Free-Solid&quot;,&quot;Font Awesome 5 Free&quot;" font-size="30" font-weight="900" transform="matrix(1.8 0 0 1.5 634 113)"></text>
  <text font-family="&quot;FontAwesome5Free-Solid&quot;,&quot;Font Awesome 5 Free&quot;" font-size="30" font-weight="900" transform="matrix(1.8 0 0 1.5 640 424)"></text>
  <text x="112" y="78" font-family="&quot;ArialMT&quot;,&quot;Arial&quot;,sans-serif" font-size="20" transform="matrix(.8 0 0 1 50 25)">input</text>
  <path fill="#fff" d="M-100 5H30v25h-130z"/>
  <text x="113" y="78" font-family="&quot;ArialMT&quot;,&quot;Arial&quot;,sans-serif" font-size="20" transform="matrix(.8 0 0 1 50 99)">view</text>
  <text x="100" y="78" font-family="&quot;ArialMT&quot;,&quot;Arial&quot;,sans-serif" font-size="20" transform="matrix(.8 0 0 .8 367 29)">request</text>
  <text x="92" y="78" font-family="&quot;ArialMT&quot;,&quot;Arial&quot;,sans-serif" font-size="20" transform="matrix(.8 0 0 .8 367 97)">response</text>
</svg>
